<?xml version="1.0" encoding="UTF-8"?>
<svg id="Capa_1" data-name="Capa 1" xmlns="http://www.w3.org/2000/svg" viewBox="0 0 373.43 106.61">
  <defs>
    <style>
      .cls-1 {
        fill: #010101;
      }

      .cls-2 {
        fill: #6fa8db;
      }

      .cls-3 {
        fill: #5b5a61;
      }

      .cls-4 {
        fill: #82cef1;
      }
    </style>
  </defs>
  <g>
    <g>
      <path class="cls-2" d="m35.29,47.02v12.56l10.87,6.28,10.87-6.28v-12.56l-10.87-6.28-10.87,6.28Z"/>
      <path class="cls-2" d="m46.16,0L0,26.65v53.3l46.16,26.65,46.16-26.65V26.65L46.16,0Zm20.64,65.22l-20.64,11.91-20.63-11.91v-23.83l20.63-11.91,20.64,11.91v23.83Z"/>
      <polygon class="cls-4" points="25.53 41.39 46.16 29.48 66.78 41.38 92.32 26.65 46.16 0 0 26.65 25.53 41.41 25.53 41.39"/>
    </g>
    <polyline class="cls-3" points="71.79 49.71 71.79 68.1 46.16 82.9 20.53 68.1 20.53 38.51 46.16 23.71 71.79 38.51 86.3 30.13 46.16 6.95 6.02 30.13 6.02 76.48 46.16 99.65 86.3 76.48 86.3 65.97 86.3 42.18"/>
  </g>
  <g>
    <g>
      <path class="cls-1" d="m133.7,37.59h-6.85v-2.52h9.3c.03.16.05.36.08.6.02.25.03.53.03.85,0,2.82-1,5.23-2.99,7.22-2,2-4.4,2.99-7.22,2.99s-5.23-1-7.22-2.99c-1.99-2-2.99-4.4-2.99-7.22s1-5.22,2.99-7.22c2-2,4.4-2.99,7.22-2.99s5.23,1,7.22,2.99c.58.58,1.08,1.2,1.48,1.84l-2.11,1.18c-.31-.49-.68-.96-1.11-1.4-1.52-1.55-3.35-2.33-5.49-2.33s-3.98.78-5.5,2.33c-1.51,1.55-2.26,3.42-2.26,5.6s.76,4.07,2.26,5.61c1.51,1.54,3.34,2.31,5.5,2.31s3.96-.77,5.49-2.31c1.29-1.32,2.01-2.84,2.16-4.55Z"/>
      <path class="cls-1" d="m143.39,35.28h9.13v2.49h-9.13c.23,1.52.91,2.85,2.04,4.01,1.42,1.45,3.14,2.18,5.14,2.18h1.95v2.51h-1.95c-2.74,0-5.09-.97-7.03-2.91-1.94-1.94-2.91-4.28-2.91-7.03s.97-5.09,2.91-7.03c1.94-1.94,4.28-2.91,7.03-2.91h1.95v2.51h-1.95c-2,0-3.72.73-5.14,2.18-1.12,1.15-1.8,2.48-2.04,4Z"/>
      <path class="cls-1" d="m160.91,26.2c1.19,0,2.33,1.22,3.41,3.67l6.22,13.36v-16.64h2.51v16.64c0,2.32-.74,3.48-2.23,3.48-1.04,0-2.08-1.16-3.12-3.48l-6.4-13.36v16.59h-2.54v-16.59c0-2.45.72-3.67,2.15-3.67Z"/>
      <path class="cls-1" d="m181.36,35.28h9.13v2.49h-9.13c.23,1.52.91,2.85,2.04,4.01,1.42,1.45,3.14,2.18,5.14,2.18h1.95v2.51h-1.95c-2.74,0-5.09-.97-7.03-2.91-1.94-1.94-2.91-4.28-2.91-7.03s.97-5.09,2.91-7.03c1.94-1.94,4.28-2.91,7.03-2.91h1.95v2.51h-1.95c-2,0-3.72.73-5.14,2.18-1.12,1.15-1.8,2.48-2.04,4Z"/>
      <path class="cls-1" d="m199.2,46.46h-2.66v-13.18c0-1.9.67-3.53,2.02-4.88,1.35-1.35,2.97-2.02,4.88-2.02,1.72,0,3.11.47,4.18,1.39,1.07.93,1.6,2.21,1.6,3.83h-.01v.06c0,1.63-.72,3.02-2.15,4.16,2.01,1.04,3.02,2.65,3.02,4.82v5.82h-2.66v-5.82s-.01,0-.01,0c-.03-1.03-.36-1.84-.98-2.41-.67-.58-1.55-.87-2.66-.87h-3.55v-2.54h2.65c1.24,0,2.16-.32,2.76-.96.61-.64.91-1.39.91-2.26h.01c0-.89-.3-1.53-.89-1.94-.59-.41-1.33-.61-2.22-.61-1.17,0-2.17.41-2.99,1.24-.82.83-1.23,1.82-1.23,2.99h-.01v13.18Z"/>
      <path class="cls-1" d="m229.02,33.28v13.18h-2.67v-9.1h-7.71v-2.54h7.71v-1.54c0-1.16-.41-2.16-1.24-2.99-.83-.83-1.82-1.24-2.99-1.24s-2.17.41-2.99,1.24c-.82.83-1.23,1.82-1.23,2.99h-.01v13.18h-2.66v-13.18c0-1.9.67-3.53,2.02-4.88,1.35-1.35,2.97-2.02,4.88-2.02s3.53.68,4.88,2.02c1.35,1.35,2.02,2.98,2.02,4.88Z"/>
      <path class="cls-1" d="m244.34,29.25c-2.01,0-3.73.71-5.15,2.13-1.42,1.42-2.13,3.13-2.13,5.15s.71,3.72,2.13,5.14c1.42,1.42,3.13,2.13,5.15,2.13h2.19v2.66h-2.19c-2.74,0-5.09-.97-7.03-2.91-1.94-1.94-2.91-4.28-2.91-7.03s.97-5.09,2.91-7.03c1.94-1.94,4.28-2.91,7.03-2.91h2.19v2.66h-2.19Z"/>
      <path class="cls-1" d="m252.34,26.59h2.66v19.87h-2.66v-19.87Z"/>
      <path class="cls-1" d="m270.85,46.74c-2.82,0-5.23-1-7.22-2.99-1.99-2-2.99-4.4-2.99-7.22s1-5.22,2.99-7.22c2-2,4.4-2.99,7.22-2.99s5.23,1,7.22,2.99c2,2,2.99,4.4,2.99,7.22s-1,5.23-2.99,7.22c-2,2-4.4,2.99-7.22,2.99Zm7.76-10.21c0-2.18-.76-4.05-2.28-5.6-1.52-1.55-3.35-2.33-5.48-2.33s-3.98.78-5.5,2.33c-1.51,1.55-2.26,3.42-2.26,5.6s.76,4.07,2.26,5.61c1.51,1.54,3.34,2.31,5.5,2.31s3.96-.77,5.48-2.31c1.52-1.54,2.28-3.41,2.28-5.61Zm-8-12.86h-2.06l4.36-4.78h2.54l-4.84,4.78Z"/>
      <path class="cls-1" d="m288.46,26.2c1.19,0,2.33,1.22,3.41,3.67l6.22,13.36v-16.64h2.51v16.64c0,2.32-.74,3.48-2.23,3.48-1.04,0-2.08-1.16-3.12-3.48l-6.4-13.36v16.59h-2.54v-16.59c0-2.45.72-3.67,2.15-3.67Z"/>
    </g>
    <g>
      <path class="cls-1" d="m239.36,53.52h2.66v19.87h-2.66v-19.87Z"/>
      <path class="cls-1" d="m249.73,53.13c1.19,0,2.33,1.22,3.41,3.67l6.22,13.36v-16.64h2.51v16.64c0,2.32-.74,3.48-2.23,3.48-1.04,0-2.08-1.16-3.12-3.48l-6.4-13.36v16.59h-2.54v-16.59c0-2.45.72-3.67,2.15-3.67Z"/>
      <path class="cls-1" d="m266.94,53.52h12.79v2.51h-5.09v17.37h-2.65v-17.37h-5.06v-2.51Z"/>
      <path class="cls-1" d="m284.68,62.21h9.13v2.49h-9.13c.23,1.52.91,2.85,2.04,4.01,1.42,1.45,3.14,2.18,5.14,2.18h1.95v2.51h-1.95c-2.74,0-5.09-.97-7.03-2.91-1.94-1.94-2.91-4.28-2.91-7.03s.97-5.09,2.91-7.03c1.94-1.94,4.28-2.91,7.03-2.91h1.95v2.51h-1.95c-2,0-3.72.73-5.14,2.18-1.12,1.15-1.8,2.48-2.04,4Z"/>
      <path class="cls-1" d="m317.01,64.52h-6.85v-2.52h9.3c.03.16.05.36.08.6.02.25.04.53.04.85,0,2.82-1,5.23-2.99,7.22-2,2-4.4,2.99-7.22,2.99s-5.23-1-7.22-2.99c-1.99-2-2.99-4.4-2.99-7.22s1-5.22,2.99-7.22c2-2,4.4-2.99,7.22-2.99s5.23,1,7.22,2.99c.58.58,1.08,1.2,1.48,1.84l-2.11,1.18c-.31-.49-.68-.96-1.11-1.4-1.52-1.55-3.35-2.33-5.49-2.33s-3.98.78-5.5,2.33c-1.51,1.55-2.26,3.42-2.26,5.6s.76,4.07,2.26,5.61c1.51,1.54,3.34,2.31,5.5,2.31s3.96-.77,5.49-2.31c1.29-1.32,2.01-2.84,2.16-4.55Z"/>
      <path class="cls-1" d="m327.29,73.39h-2.66v-13.18c0-1.9.67-3.53,2.02-4.88,1.35-1.35,2.97-2.02,4.88-2.02,1.72,0,3.11.47,4.18,1.39,1.07.93,1.6,2.21,1.6,3.83h-.01v.06c0,1.63-.72,3.02-2.15,4.16,2.01,1.04,3.02,2.65,3.02,4.82v5.82h-2.66v-5.82s-.01,0-.01,0c-.03-1.03-.36-1.84-.98-2.41-.67-.58-1.55-.87-2.66-.87h-3.55v-2.54h2.65c1.24,0,2.16-.32,2.76-.96.61-.64.91-1.39.91-2.26h.01c0-.89-.3-1.53-.89-1.94-.59-.41-1.33-.61-2.22-.61-1.17,0-2.17.41-2.99,1.24-.82.83-1.23,1.82-1.23,2.99h-.01v13.18Z"/>
      <path class="cls-1" d="m357.11,60.21v13.18h-2.67v-9.1h-7.71v-2.54h7.71v-1.54c0-1.16-.41-2.16-1.24-2.99-.83-.83-1.82-1.24-2.99-1.24s-2.17.41-2.99,1.24c-.82.83-1.23,1.82-1.23,2.99h-.01v13.18h-2.66v-13.18c0-1.9.67-3.53,2.02-4.88,1.35-1.35,2.97-2.02,4.88-2.02s3.53.68,4.88,2.02c1.35,1.35,2.02,2.98,2.02,4.88Z"/>
      <path class="cls-1" d="m363.18,53.52h2.66v13.54c.22,2.54,1.44,3.81,3.66,3.81h3.94v2.52h-3.03c-4.81,0-7.22-2.36-7.22-7.1v-12.78Z"/>
    </g>
    <g>
      <path class="cls-1" d="m119.96,56.18v17.21h-2.66v-19.87h5.13c2.74,0,5.09.97,7.03,2.91,1.94,1.94,2.91,4.28,2.91,7.03s-.97,5.09-2.91,7.03c-1.94,1.94-4.28,2.91-7.03,2.91h-1.23v-2.66h1.23c2.01,0,3.73-.71,5.15-2.13,1.42-1.42,2.13-3.14,2.13-5.14s-.71-3.73-2.13-5.15c-1.42-1.42-3.13-2.13-5.15-2.13h-2.47Z"/>
      <path class="cls-1" d="m137.99,53.52h2.66v19.87h-2.66v-19.87Z"/>
      <path class="cls-1" d="m164.15,64.52h-6.85v-2.52h9.3c.03.16.05.36.08.6.02.25.03.53.03.85,0,2.82-1,5.23-2.99,7.22-2,2-4.4,2.99-7.22,2.99s-5.23-1-7.22-2.99c-1.99-2-2.99-4.4-2.99-7.22s1-5.22,2.99-7.22c2-2,4.4-2.99,7.22-2.99s5.23,1,7.22,2.99c.58.58,1.08,1.2,1.48,1.84l-2.11,1.18c-.31-.49-.68-.96-1.11-1.4-1.52-1.55-3.35-2.33-5.49-2.33s-3.98.78-5.5,2.33c-1.51,1.55-2.26,3.42-2.26,5.6s.76,4.07,2.26,5.61c1.51,1.54,3.34,2.31,5.5,2.31s3.96-.77,5.49-2.31c1.29-1.32,2.01-2.84,2.16-4.55Z"/>
      <path class="cls-1" d="m172.05,53.52h2.66v19.87h-2.66v-19.87Z"/>
      <path class="cls-1" d="m179.89,53.52h12.79v2.51h-5.09v17.37h-2.65v-17.37h-5.06v-2.51Z"/>
      <path class="cls-1" d="m210.65,60.21v13.18h-2.67v-9.1h-7.71v-2.54h7.71v-1.54c0-1.16-.41-2.16-1.24-2.99-.83-.83-1.82-1.24-2.99-1.24s-2.17.41-2.99,1.24c-.82.83-1.23,1.82-1.23,2.99h-.01v13.18h-2.66v-13.18c0-1.9.67-3.53,2.02-4.88,1.35-1.35,2.97-2.02,4.88-2.02s3.53.68,4.88,2.02c1.35,1.35,2.02,2.98,2.02,4.88Z"/>
      <path class="cls-1" d="m216.72,53.52h2.66v13.54c.22,2.54,1.44,3.81,3.66,3.81h3.94v2.52h-3.03c-4.81,0-7.22-2.36-7.22-7.1v-12.78Z"/>
    </g>
  </g>
</svg>