<?xml version="1.0" encoding="utf-8"?>
<!-- Generator: Adobe Illustrator 27.6.1, SVG Export Plug-In . SVG Version: 6.00 Build 0)  -->
<svg version="1.1" id="Capa_1" xmlns="http://www.w3.org/2000/svg" xmlns:xlink="http://www.w3.org/1999/xlink" x="0px" y="0px"
	 viewBox="0 0 261.86 74.76" style="enable-background:new 0 0 261.86 74.76;" xml:space="preserve">
<style type="text/css">
	.st0{fill:#5B5A63;}
	.st1{fill:#599ED0;}
	.st2{fill:#31BDEF;}
	.st3{fill:#5C5B65;}
</style>
<g>
	<g>
		<g>
			<g>
				<g>
					<path class="st0" d="M93.75,26.36h-4.8v-1.77h6.52c0.02,0.11,0.04,0.25,0.05,0.42c0.02,0.17,0.02,0.37,0.02,0.6
						c0,1.98-0.7,3.66-2.1,5.06c-1.4,1.4-3.09,2.1-5.06,2.1c-1.98,0-3.66-0.7-5.06-2.1c-1.4-1.4-2.1-3.09-2.1-5.06
						c0-1.98,0.7-3.66,2.1-5.06c1.4-1.4,3.09-2.1,5.06-2.1c1.98,0,3.66,0.7,5.06,2.1c0.41,0.41,0.75,0.84,1.04,1.29l-1.48,0.83
						c-0.22-0.34-0.48-0.67-0.78-0.98c-1.07-1.09-2.35-1.63-3.85-1.63c-1.51,0-2.79,0.54-3.85,1.63c-1.06,1.09-1.59,2.4-1.59,3.93
						c0,1.54,0.53,2.85,1.59,3.94c1.06,1.08,2.34,1.62,3.85,1.62c1.5,0,2.78-0.54,3.85-1.62C93.14,28.62,93.65,27.56,93.75,26.36z"
						/>
					<path class="st0" d="M100.55,24.74h6.4v1.75h-6.4c0.16,1.06,0.64,2,1.43,2.81c1,1.02,2.2,1.53,3.61,1.53h1.37v1.76h-1.37
						c-1.92,0-3.57-0.68-4.93-2.04c-1.36-1.36-2.04-3-2.04-4.93s0.68-3.57,2.04-4.93c1.36-1.36,3-2.04,4.93-2.04h1.37v1.76h-1.37
						c-1.41,0-2.61,0.51-3.61,1.53C101.2,22.73,100.72,23.67,100.55,24.74z"/>
					<path class="st0" d="M112.83,18.37c0.84,0,1.63,0.86,2.39,2.58l4.36,9.37V18.65h1.76v11.67c0,1.63-0.52,2.44-1.56,2.44
						c-0.73,0-1.46-0.81-2.19-2.44l-4.49-9.37v11.63h-1.78V20.95C111.33,19.23,111.83,18.37,112.83,18.37z"/>
					<path class="st0" d="M127.18,24.74h6.4v1.75h-6.4c0.16,1.06,0.64,2,1.43,2.81c1,1.02,2.2,1.53,3.61,1.53h1.37v1.76h-1.37
						c-1.92,0-3.57-0.68-4.93-2.04c-1.36-1.36-2.04-3-2.04-4.93s0.68-3.57,2.04-4.93c1.36-1.36,3-2.04,4.93-2.04h1.37v1.76h-1.37
						c-1.41,0-2.61,0.51-3.61,1.53C127.82,22.73,127.34,23.67,127.18,24.74z"/>
					<path class="st0" d="M139.68,32.58h-1.87v-9.24c0-1.33,0.47-2.48,1.42-3.42c0.95-0.95,2.09-1.42,3.42-1.42
						c1.2,0,2.18,0.33,2.93,0.98c0.75,0.65,1.12,1.55,1.12,2.69h-0.01v0.04c0,1.15-0.5,2.12-1.51,2.92
						c1.41,0.73,2.12,1.86,2.12,3.38v4.08h-1.87l0.01-4.08h-0.02c-0.02-0.73-0.25-1.29-0.69-1.69c-0.47-0.41-1.09-0.61-1.87-0.61
						h-2.49v-1.78h1.86c0.87,0,1.51-0.22,1.94-0.67c0.42-0.45,0.64-0.97,0.64-1.58h0.01c0-0.62-0.21-1.08-0.62-1.36
						c-0.41-0.29-0.93-0.43-1.55-0.43c-0.82,0-1.52,0.29-2.1,0.87c-0.58,0.58-0.86,1.28-0.86,2.09h-0.01V32.58z"/>
					<path class="st0" d="M160.59,23.34v9.24h-1.88V26.2h-5.4v-1.78h5.4v-1.08c0-0.82-0.29-1.51-0.87-2.09
						c-0.58-0.58-1.28-0.87-2.09-0.87c-0.82,0-1.52,0.29-2.1,0.87c-0.58,0.58-0.86,1.28-0.86,2.09h-0.01v9.24h-1.87v-9.24
						c0-1.33,0.47-2.48,1.42-3.42c0.95-0.95,2.09-1.42,3.42-1.42s2.47,0.47,3.42,1.42C160.12,20.86,160.59,22,160.59,23.34z"/>
					<path class="st0" d="M171.34,20.51c-1.41,0-2.62,0.5-3.61,1.49c-0.99,0.99-1.49,2.2-1.49,3.61c0,1.41,0.5,2.61,1.49,3.61
						c0.99,1,2.2,1.5,3.61,1.5h1.54v1.87h-1.54c-1.92,0-3.57-0.68-4.93-2.04c-1.36-1.36-2.04-3-2.04-4.93s0.68-3.57,2.04-4.93
						c1.36-1.36,3-2.04,4.93-2.04h1.54v1.87H171.34z"/>
					<path class="st0" d="M176.95,18.65h1.87v13.94h-1.87V18.65z"/>
					<path class="st0" d="M189.93,32.78c-1.98,0-3.66-0.7-5.06-2.1c-1.4-1.4-2.1-3.09-2.1-5.06c0-1.98,0.7-3.66,2.1-5.06
						c1.4-1.4,3.09-2.1,5.06-2.1c1.98,0,3.66,0.7,5.06,2.1c1.4,1.4,2.1,3.09,2.1,5.06c0,1.98-0.7,3.66-2.1,5.06
						C193.59,32.08,191.9,32.78,189.93,32.78z M195.37,25.61c0-1.53-0.53-2.84-1.6-3.93c-1.07-1.09-2.35-1.63-3.84-1.63
						c-1.51,0-2.79,0.54-3.85,1.63c-1.06,1.09-1.59,2.4-1.59,3.93c0,1.54,0.53,2.85,1.59,3.94c1.06,1.08,2.34,1.62,3.85,1.62
						c1.5,0,2.78-0.54,3.84-1.62C194.84,28.47,195.37,27.15,195.37,25.61z M189.76,16.59h-1.45l3.06-3.35h1.78L189.76,16.59z"/>
					<path class="st0" d="M202.28,18.37c0.84,0,1.63,0.86,2.39,2.58l4.36,9.37V18.65h1.76v11.67c0,1.63-0.52,2.44-1.56,2.44
						c-0.73,0-1.46-0.81-2.19-2.44l-4.49-9.37v11.63h-1.78V20.95C200.77,19.23,201.28,18.37,202.28,18.37z"/>
				</g>
			</g>
			<g>
				<path class="st0" d="M167.84,37.53h1.87v13.94h-1.87V37.53z"/>
				<path class="st0" d="M175.12,37.26c0.84,0,1.63,0.86,2.39,2.58l4.36,9.37V37.53h1.76V49.2c0,1.63-0.52,2.44-1.56,2.44
					c-0.73,0-1.46-0.81-2.19-2.44l-4.49-9.37v11.63h-1.78V39.83C173.61,38.11,174.12,37.26,175.12,37.26z"/>
				<path class="st0" d="M187.19,37.53h8.97v1.76h-3.57v12.18h-1.86V39.29h-3.55V37.53z"/>
				<path class="st0" d="M199.63,43.62h6.4v1.75h-6.4c0.16,1.06,0.64,2,1.43,2.81c1,1.02,2.2,1.53,3.61,1.53h1.37v1.76h-1.37
					c-1.92,0-3.57-0.68-4.93-2.04c-1.36-1.36-2.04-3-2.04-4.93c0-1.92,0.68-3.57,2.04-4.93c1.36-1.36,3-2.04,4.93-2.04h1.37v1.76
					h-1.37c-1.41,0-2.61,0.51-3.61,1.53C200.27,41.62,199.79,42.55,199.63,43.62z"/>
				<path class="st0" d="M222.3,45.25h-4.8v-1.77h6.52c0.02,0.11,0.04,0.25,0.05,0.42c0.02,0.17,0.02,0.37,0.02,0.6
					c0,1.98-0.7,3.66-2.1,5.06c-1.4,1.4-3.09,2.1-5.06,2.1c-1.98,0-3.66-0.7-5.06-2.1c-1.4-1.4-2.1-3.09-2.1-5.06
					c0-1.98,0.7-3.66,2.1-5.06c1.4-1.4,3.09-2.1,5.06-2.1c1.98,0,3.66,0.7,5.06,2.1c0.41,0.41,0.75,0.84,1.04,1.29l-1.48,0.83
					c-0.22-0.34-0.48-0.67-0.78-0.98c-1.07-1.09-2.35-1.63-3.85-1.63c-1.51,0-2.79,0.54-3.85,1.63c-1.06,1.09-1.59,2.4-1.59,3.93
					c0,1.54,0.53,2.85,1.59,3.94c1.06,1.08,2.34,1.62,3.85,1.62c1.5,0,2.78-0.54,3.85-1.62C221.69,47.51,222.19,46.44,222.3,45.25z"
					/>
				<path class="st0" d="M229.51,51.46h-1.87v-9.24c0-1.33,0.47-2.48,1.42-3.42c0.95-0.95,2.09-1.42,3.42-1.42
					c1.2,0,2.18,0.33,2.93,0.98c0.75,0.65,1.12,1.55,1.12,2.69h-0.01v0.04c0,1.15-0.5,2.12-1.51,2.92c1.41,0.73,2.12,1.86,2.12,3.38
					v4.08h-1.87l0.01-4.08h-0.02c-0.02-0.73-0.25-1.29-0.69-1.69c-0.47-0.41-1.09-0.61-1.87-0.61h-2.49V43.3h1.86
					c0.87,0,1.51-0.22,1.94-0.67c0.42-0.45,0.64-0.97,0.64-1.58h0.01c0-0.62-0.21-1.08-0.62-1.36c-0.41-0.28-0.93-0.43-1.55-0.43
					c-0.82,0-1.52,0.29-2.1,0.87c-0.58,0.58-0.86,1.28-0.86,2.09h-0.01V51.46z"/>
				<path class="st0" d="M250.42,42.22v9.24h-1.88v-6.38h-5.4V43.3h5.4v-1.08c0-0.82-0.29-1.51-0.87-2.09
					c-0.58-0.58-1.28-0.87-2.09-0.87c-0.82,0-1.52,0.29-2.1,0.87c-0.58,0.58-0.86,1.28-0.86,2.09h-0.01v9.24h-1.87v-9.24
					c0-1.33,0.47-2.48,1.42-3.42c0.95-0.95,2.09-1.42,3.42-1.42s2.47,0.47,3.42,1.42C249.94,39.75,250.42,40.89,250.42,42.22z"/>
				<path class="st0" d="M254.67,37.53h1.87v9.49c0.16,1.78,1.01,2.67,2.57,2.67h2.76v1.77h-2.13c-3.38,0-5.06-1.66-5.06-4.98V37.53
					z"/>
			</g>
			<g>
				<path class="st0" d="M84.12,39.39v12.07h-1.87V37.53h3.6c1.92,0,3.57,0.68,4.93,2.04c1.36,1.36,2.04,3,2.04,4.93
					c0,1.92-0.68,3.57-2.04,4.93c-1.36,1.36-3,2.04-4.93,2.04h-0.86V49.6h0.86c1.41,0,2.62-0.5,3.61-1.5c0.99-1,1.49-2.2,1.49-3.61
					c0-1.41-0.5-2.62-1.49-3.61c-0.99-0.99-2.2-1.49-3.61-1.49H84.12z"/>
				<path class="st0" d="M96.76,37.53h1.87v13.94h-1.87V37.53z"/>
				<path class="st0" d="M115.11,45.25h-4.8v-1.77h6.52c0.02,0.11,0.04,0.25,0.05,0.42c0.02,0.17,0.02,0.37,0.02,0.6
					c0,1.98-0.7,3.66-2.1,5.06s-3.09,2.1-5.06,2.1c-1.98,0-3.66-0.7-5.06-2.1c-1.4-1.4-2.1-3.09-2.1-5.06c0-1.98,0.7-3.66,2.1-5.06
					c1.4-1.4,3.09-2.1,5.06-2.1c1.98,0,3.66,0.7,5.06,2.1c0.41,0.41,0.75,0.84,1.04,1.29l-1.48,0.83c-0.22-0.34-0.48-0.67-0.78-0.98
					c-1.07-1.09-2.35-1.63-3.85-1.63c-1.51,0-2.79,0.54-3.85,1.63c-1.06,1.09-1.59,2.4-1.59,3.93c0,1.54,0.53,2.85,1.59,3.94
					c1.06,1.08,2.34,1.62,3.85,1.62c1.5,0,2.78-0.54,3.85-1.62C114.5,47.51,115,46.44,115.11,45.25z"/>
				<path class="st0" d="M120.64,37.53h1.87v13.94h-1.87V37.53z"/>
				<path class="st0" d="M126.14,37.53h8.97v1.76h-3.57v12.18h-1.86V39.29h-3.55V37.53z"/>
				<path class="st0" d="M147.72,42.22v9.24h-1.88v-6.38h-5.4V43.3h5.4v-1.08c0-0.82-0.29-1.51-0.87-2.09
					c-0.58-0.58-1.28-0.87-2.09-0.87c-0.82,0-1.52,0.29-2.1,0.87c-0.58,0.58-0.86,1.28-0.86,2.09h-0.01v9.24h-1.87v-9.24
					c0-1.33,0.47-2.48,1.42-3.42c0.95-0.95,2.09-1.42,3.42-1.42c1.33,0,2.47,0.47,3.42,1.42C147.24,39.75,147.72,40.89,147.72,42.22
					z"/>
				<path class="st0" d="M151.97,37.53h1.87v9.49c0.16,1.78,1.01,2.67,2.57,2.67h2.76v1.77h-2.13c-3.38,0-5.06-1.66-5.06-4.98V37.53
					z"/>
			</g>
		</g>
	</g>
	<g>
		<g>
			<g>
				<g>
					<g>
						<path class="st1" d="M24.74,32.98v8.81l7.63,4.4l7.63-4.4v-8.81l-7.63-4.4L24.74,32.98z"/>
					</g>
				</g>
				<g>
					<g>
						<path class="st1" d="M32.37,0L0,18.69v37.38l32.37,18.69l32.37-18.69V18.69L32.37,0z M46.84,45.73l-14.47,8.35L17.9,45.73
							V29.02l14.47-8.35l14.47,8.35V45.73z"/>
					</g>
				</g>
				<polygon class="st2" points="17.9,29.02 32.37,20.67 46.83,29.02 64.74,18.69 32.37,0 0,18.69 17.9,29.04 				"/>
			</g>
			<polyline class="st3" points="50.34,34.86 50.34,47.75 32.37,58.13 14.4,47.75 14.4,27 32.37,16.63 50.34,27 60.52,21.13 
				32.37,4.88 4.22,21.13 4.22,53.63 32.37,69.88 60.52,53.63 60.52,46.26 60.52,29.58 			"/>
		</g>
	</g>
</g>
</svg>
