<?xml version="1.0"?>
<svg width="1279" height="550" xmlns="http://www.w3.org/2000/svg" xmlns:svg="http://www.w3.org/2000/svg" preserveAspectRatio="xMidYMid meet" version="1.0">
 <g class="layer">
  <title>Layer 1</title>
  <g fill="#33FCFF" id="svg_1" transform="translate(0.000000,550.000000) scale(0.100000,-0.100000)">
   <path d="m2345,4993c-44,-25 -109,-63 -145,-83c-36,-21 -180,-104 -320,-185c-140,-81 -327,-189 -415,-240c-88,-51 -205,-118 -260,-150c-305,-176 -436,-252 -485,-280c-30,-18 -98,-57 -150,-87l-95,-55l0,-1142l0,-1142l105,-61c107,-61 330,-190 565,-326c72,-41 186,-107 255,-147c134,-77 336,-194 490,-283c52,-30 120,-69 150,-87c30,-17 131,-75 223,-129l168,-97l52,29c29,16 95,54 147,84c218,126 366,212 550,318c107,62 224,130 260,150c36,20 92,53 125,72c33,19 150,87 260,150c110,64 241,139 290,168c50,28 134,77 188,108l97,56l0,843l0,844l-92,-49c-51,-27 -183,-96 -293,-152c-110,-56 -228,-118 -262,-137l-63,-35l-2,-451l-3,-451l-55,-31c-75,-43 -585,-337 -690,-398c-47,-27 -114,-66 -150,-87c-36,-20 -110,-63 -165,-95c-55,-33 -121,-70 -146,-84l-46,-25l-64,36c-35,20 -136,77 -224,128c-212,123 -336,195 -415,240c-247,141 -527,304 -537,312c-10,8 -13,167 -13,733l0,723l38,22c59,36 217,127 352,205c69,39 170,98 225,130c128,75 272,158 355,205c36,20 109,62 163,94c53,31 103,59 111,62c8,3 58,-20 112,-52c55,-32 140,-81 189,-109c50,-29 149,-86 220,-127c72,-41 218,-126 325,-188c107,-62 246,-142 308,-177l113,-65l207,119c114,66 252,146 307,178c55,32 122,71 149,86l48,27l-68,39c-38,22 -143,83 -234,135c-91,53 -239,138 -330,190c-91,53 -253,146 -360,208c-107,62 -224,130 -260,150c-36,21 -135,78 -220,127c-389,225 -491,283 -498,283c-4,0 -43,-21 -87,-47z" id="svg_2"/>
   <path d="m9586,3834l-59,-64l31,0c25,0 45,13 99,65l68,64l-40,-1c-36,0 -46,-7 -99,-64z" id="svg_3"/>
   <path d="m5394,3680c-80,-19 -174,-110 -199,-193c-33,-111 -10,-202 73,-287c47,-48 68,-61 116,-75c112,-33 217,-6 295,74c52,54 81,124 81,197l0,44l-136,0l-135,0l3,-32l3,-33l98,-3c56,-2 97,-7 97,-13c0,-22 -33,-86 -58,-112c-66,-70 -170,-89 -256,-47c-112,54 -156,181 -102,295c41,87 103,125 201,125c65,0 120,-24 158,-70c26,-30 27,-31 57,-15c29,15 31,18 17,38c-24,37 -108,95 -153,106c-48,12 -113,13 -160,1z" id="svg_4"/>
   <path d="m6414,3655c-11,-27 -14,-89 -14,-285l0,-250l35,0l35,0l2,233l3,232l26,-55c184,-384 206,-420 250,-420c10,0 27,12 38,26c20,25 21,39 21,285l0,259l-35,0l-35,0l0,-226c0,-124 -4,-223 -8,-220c-5,3 -51,96 -103,207c-52,111 -104,212 -116,225c-14,15 -33,24 -53,24c-26,0 -33,-6 -46,-35z" id="svg_5"/>
   <path d="m7607,3676c-50,-19 -85,-51 -108,-101c-16,-35 -19,-67 -19,-247l0,-208l40,0l40,0l0,211l0,211l34,34c29,29 41,34 80,34c57,0 86,-25 86,-73c0,-52 -37,-81 -113,-87c-61,-5 -62,-6 -65,-36l-3,-32l75,-4c67,-3 79,-7 103,-31c26,-26 28,-34 31,-127l4,-100l34,0l34,0l0,110l0,110l-41,45c-23,25 -37,45 -32,45c17,0 53,77 53,112c0,45 -30,99 -68,121c-42,24 -118,31 -165,13z" id="svg_6"/>
   <path d="m8137,3675c-49,-17 -81,-47 -107,-100c-18,-37 -20,-61 -20,-248l0,-207l35,0l35,0l0,190c0,208 6,240 55,278c76,60 195,-6 195,-107l0,-30l-112,-3l-113,-3l-3,-32l-3,-32l113,-3l113,-3l3,-127l3,-128l34,0l35,0l0,210c0,188 -2,215 -19,248c-48,94 -145,133 -244,97z" id="svg_7"/>
   <path d="m9060,3400l0,-290l45,0l45,0l0,290l0,290l-45,0l-45,0l0,-290z" id="svg_8"/>
   <path d="m9510,3681c-119,-39 -210,-161 -210,-281c0,-75 28,-139 88,-200c47,-48 68,-61 116,-75c141,-41 279,15 344,139c23,44 27,63 27,136c0,73 -4,92 -27,136c-49,93 -131,144 -242,150c-39,2 -82,0 -96,-5zm179,-81c75,-38 121,-114 121,-200c0,-161 -157,-266 -308,-205c-75,31 -132,119 -132,205c0,84 52,168 124,201c55,25 145,25 195,-1z" id="svg_9"/>
   <path d="m10044,3655c-11,-27 -14,-89 -14,-285l0,-250l35,0l35,0l0,225c0,124 3,225 8,225c4,0 52,-95 106,-211c97,-205 127,-249 166,-249c9,0 25,9 36,21c17,19 19,42 22,285l3,264l-36,0l-35,0l0,-225c0,-124 -3,-225 -7,-225c-5,1 -50,92 -102,205c-52,112 -105,215 -118,229c-15,17 -34,26 -54,26c-25,0 -33,-6 -45,-35z" id="svg_10"/>
   <path d="m6064,3664c-50,-18 -123,-85 -149,-139c-28,-56 -28,-194 -1,-249c47,-95 148,-156 258,-156l48,0l0,35l0,35l-48,0c-85,0 -179,68 -197,143l-7,27l126,0l126,0l0,38l0,37l-120,-3c-137,-4 -144,1 -112,65c38,73 104,113 187,113c45,0 45,0 45,35l0,35l-57,-1c-32,0 -76,-7 -99,-15z" id="svg_11"/>
   <path d="m7155,3668c-71,-25 -149,-104 -174,-177c-18,-54 -13,-150 10,-201c45,-100 148,-170 250,-170c55,0 57,1 61,30c3,17 2,32 0,35c-3,3 -26,5 -52,5c-61,0 -127,34 -167,88c-58,77 -53,82 90,82c68,0 126,2 129,5c2,3 3,18 0,35l-4,29l-122,3l-121,3l2,29c5,70 107,146 195,146l48,0l0,35l0,35l-57,-1c-32,0 -71,-5 -88,-11z" id="svg_12"/>
   <path d="m8748,3670c-69,-21 -150,-100 -178,-175c-20,-53 -15,-159 11,-212c50,-104 145,-163 261,-163l58,0l0,35c0,33 -2,35 -36,35c-172,0 -282,154 -213,297c37,77 115,123 208,123c40,0 41,1 41,35l0,35l-62,-1c-35,0 -75,-4 -90,-9z" id="svg_13"/>
   <path d="m8951,2904c-20,-25 -21,-39 -21,-290l0,-264l35,0l35,0l1,233l1,232l107,-219c59,-121 117,-227 129,-237c16,-12 30,-15 50,-10c49,13 52,34 49,311l-2,255l-32,3l-33,3l0,-231c0,-127 -4,-229 -9,-226c-4,3 -50,96 -102,207c-120,257 -157,298 -208,233z" id="svg_14"/>
   <path d="m5225,2908c-3,-7 -4,-135 -3,-283l3,-270l35,0l35,0l3,243l2,242l55,0c129,0 215,-82 215,-204c0,-30 -5,-67 -11,-83c-24,-65 -109,-123 -179,-123l-40,0l0,-41l0,-42l55,7c187,22 297,195 238,376c-20,64 -85,133 -151,163c-60,27 -248,38 -257,15z" id="svg_15"/>
   <path d="m5810,2635l0,-285l45,0l45,0l0,285l0,285l-45,0l-45,0l0,-285z" id="svg_16"/>
   <path d="m6212,2894c-102,-51 -162,-150 -162,-268c0,-81 32,-148 98,-207c176,-159 458,-46 479,193l6,58l-137,0l-137,0l3,-32l3,-33l97,-3l96,-3l-9,-31c-15,-53 -57,-104 -110,-133c-99,-54 -222,-21 -286,76c-37,57 -44,157 -15,215c75,146 241,178 354,67c34,-33 40,-35 63,-25c14,6 25,17 25,23c0,19 -74,84 -122,108c-66,32 -177,30 -246,-5z" id="svg_17"/>
   <path d="m6770,2635l0,-285l45,0l45,0l0,285l0,285l-45,0l-45,0l0,-285z" id="svg_18"/>
   <path d="m7007,2914c-4,-4 -7,-20 -7,-35c0,-28 1,-28 73,-31l72,-3l3,-247l2,-248l35,0l35,0l2,248l3,247l73,3l73,3l-3,32l-3,32l-176,3c-96,1 -178,-1 -182,-4z" id="svg_19"/>
   <path d="m7605,2906c-16,-7 -43,-25 -58,-40c-52,-48 -57,-76 -57,-306l0,-210l35,0l35,0l0,198c0,226 7,252 74,286c32,16 44,17 76,7c55,-16 90,-62 90,-117l0,-44l-105,0l-105,0l0,-35l0,-35l105,0l105,0l0,-130l0,-130l41,0l40,0l-3,218c-3,243 -6,255 -81,315c-31,26 -48,32 -100,34c-38,2 -74,-2 -92,-11z" id="svg_20"/>
   <path d="m8057,2913c-10,-10 -8,-382 3,-427c20,-88 79,-127 202,-134l78,-5l0,37l0,36l-65,0c-138,0 -145,15 -145,290l0,210l-33,0c-19,0 -37,-3 -40,-7z" id="svg_21"/>
   <path d="m8690,2636l0,-286l45,0l45,0l-2,283l-3,282l-42,3l-43,3l0,-285z" id="svg_22"/>
   <path d="m9480,2885l0,-34l73,-3l72,-3l3,-247l2,-248l35,0l35,0l2,248l3,247l68,3l67,3l0,34l0,35l-180,0l-180,0l0,-35z" id="svg_23"/>
   <path d="m10123,2910c-87,-20 -171,-98 -199,-184c-21,-63 -15,-166 14,-222c46,-90 154,-154 259,-154c43,0 43,0 43,35c0,35 -1,35 -43,35c-65,0 -143,43 -178,98c-51,80 -48,82 96,82l125,0l0,35l0,35l-125,0c-71,0 -125,4 -125,9c0,41 60,119 112,147c14,7 51,17 82,20c56,7 56,7 56,40c0,33 -1,34 -42,33c-24,-1 -57,-4 -75,-9z" id="svg_24"/>
   <path d="m10574,2901c-55,-25 -109,-75 -141,-128c-32,-54 -43,-167 -23,-229c31,-95 107,-163 210,-190c175,-45 345,80 353,258l2,53l-132,3l-133,3l0,-36l0,-35l95,0c103,0 105,-1 84,-57c-27,-72 -118,-133 -199,-133c-124,0 -219,93 -220,214c0,75 20,126 66,172c87,84 210,85 300,2c40,-37 47,-40 69,-30c14,6 25,16 25,22c0,18 -76,84 -122,108c-59,29 -173,31 -234,3z" id="svg_25"/>
   <path d="m11232,2904c-45,-23 -89,-76 -102,-123c-6,-24 -9,-119 -8,-233l3,-193l35,0l35,0l5,212c5,206 6,212 29,237c35,37 82,50 126,36c64,-21 73,-74 21,-126c-31,-31 -40,-34 -90,-34l-56,0l0,-34l0,-34l76,-4c69,-3 79,-6 100,-31c22,-26 24,-37 24,-128l0,-99l40,0l40,0l0,94c0,108 -9,138 -52,183l-30,31l26,35c20,26 26,45 26,86c0,46 -4,56 -39,93c-37,41 -41,42 -107,45c-50,3 -78,-1 -102,-13z" id="svg_26"/>
   <path d="m11765,2903c-48,-25 -72,-51 -94,-104c-20,-45 -21,-64 -19,-246l3,-198l35,0l35,0l5,212c5,207 5,212 29,237c14,15 41,31 61,37c73,22 150,-41 150,-123l0,-38l-110,0l-110,0l0,-35l0,-35l110,0l110,0l0,-131l0,-130l38,3l37,3l3,199c2,192 2,200 -22,252c-34,74 -96,114 -175,114c-31,-1 -69,-8 -86,-17z" id="svg_27"/>
   <path d="m12220,2706c0,-236 5,-263 60,-309c39,-33 88,-47 168,-47l62,0l0,35l0,35l-65,0c-40,0 -78,6 -96,16c-52,26 -59,60 -59,284l0,200l-35,0l-35,0l0,-214z" id="svg_28"/>
  </g>
 </g>
</svg>